<mxfile host="65bd71144e">
    <diagram id="lZdmHoQdyWsZ4Q5RS9Lx" name="Page-1">
        <mxGraphModel dx="927" dy="838" grid="1" gridSize="10" guides="1" tooltips="1" connect="1" arrows="1" fold="1" page="1" pageScale="1" pageWidth="850" pageHeight="1100" math="0" shadow="0">
            <root>
                <mxCell id="0"/>
                <mxCell id="1" parent="0"/>
                <mxCell id="2" value="" style="rounded=1;whiteSpace=wrap;html=1;arcSize=5;strokeWidth=2;strokeColor=#B3FF66;" vertex="1" parent="1">
                    <mxGeometry x="120" y="380" width="370" height="200" as="geometry"/>
                </mxCell>
                <mxCell id="3" value="" style="endArrow=none;html=1;entryX=1;entryY=1;entryDx=0;entryDy=0;strokeColor=#B3FF66;" edge="1" parent="1" target="12">
                    <mxGeometry width="50" height="50" relative="1" as="geometry">
                        <mxPoint x="120" y="416" as="sourcePoint"/>
                        <mxPoint x="450" y="490" as="targetPoint"/>
                    </mxGeometry>
                </mxCell>
                <mxCell id="4" value="" style="rounded=0;whiteSpace=wrap;html=1;fillColor=#e1d5e7;strokeColor=#9673a6;" vertex="1" parent="1">
                    <mxGeometry x="130" y="390" width="20" height="20" as="geometry"/>
                </mxCell>
                <mxCell id="5" value="My super application" style="text;html=1;strokeColor=none;fillColor=none;align=center;verticalAlign=middle;whiteSpace=wrap;rounded=0;fontStyle=1;fontSize=18;fontColor=#000099;" vertex="1" parent="1">
                    <mxGeometry x="150" y="385" width="310" height="30" as="geometry"/>
                </mxCell>
                <mxCell id="6" value="Cancel" style="rounded=1;whiteSpace=wrap;html=1;fontSize=16;fillColor=#f5f5f5;fontColor=#333333;strokeColor=#666666;" vertex="1" parent="1">
                    <mxGeometry x="370" y="535" width="100" height="30" as="geometry"/>
                </mxCell>
                <mxCell id="7" value="Ok" style="rounded=1;whiteSpace=wrap;html=1;fontSize=16;fillColor=#d5e8d4;strokeColor=#82b366;" vertex="1" parent="1">
                    <mxGeometry x="255" y="535" width="100" height="30" as="geometry"/>
                </mxCell>
                <mxCell id="8" value="" style="ellipse;whiteSpace=wrap;html=1;aspect=fixed;rounded=1;fontSize=16;fillColor=#f8cecc;strokeColor=#b85450;" vertex="1" parent="1">
                    <mxGeometry x="140" y="430" width="80" height="80" as="geometry"/>
                </mxCell>
                <mxCell id="9" value="Lorem ipsum..." style="text;html=1;strokeColor=none;fillColor=none;align=left;verticalAlign=middle;whiteSpace=wrap;rounded=0;fontSize=18;fontStyle=3" vertex="1" parent="1">
                    <mxGeometry x="230" y="430" width="220" height="30" as="geometry"/>
                </mxCell>
                <mxCell id="12" value="X" style="text;html=1;strokeColor=none;fillColor=none;align=center;verticalAlign=middle;whiteSpace=wrap;rounded=0;fontSize=16;fontStyle=1" vertex="1" parent="1">
                    <mxGeometry x="460" y="385" width="30" height="30" as="geometry"/>
                </mxCell>
                <mxCell id="13" value="The quick brown fox jumps over lazy dog" style="text;html=1;strokeColor=none;fillColor=none;align=left;verticalAlign=middle;whiteSpace=wrap;rounded=0;fontSize=18;fontColor=#999999;" vertex="1" parent="1">
                    <mxGeometry x="230" y="470" width="240" height="40" as="geometry"/>
                </mxCell>
            </root>
        </mxGraphModel>
    </diagram>
</mxfile>